<svg width="24" height="24" viewBox="0 0 24 24" fill="none" xmlns="http://www.w3.org/2000/svg">
<path fill-rule="evenodd" clip-rule="evenodd" d="M19.2847 12.6448C19.9918 11.9266 20.3846 10.9569 20.3767 9.94907C20.3688 8.94125 19.9609 7.97783 19.2427 7.27077C18.8871 6.92066 18.466 6.64403 18.0034 6.45667C17.5409 6.2693 17.046 6.17487 16.547 6.17877C15.5392 6.18665 14.5758 6.59456 13.8687 7.31277C13.6767 7.50477 13.4327 7.74043 13.1367 8.01977L12.3137 8.79477L11.4907 8.01977C11.194 7.73977 10.9497 7.5041 10.7577 7.31277C10.0451 6.60013 9.07851 6.19978 8.07069 6.19978C7.06287 6.19978 6.09633 6.60013 5.38369 7.31277C3.91569 8.78177 3.89869 11.1568 5.32969 12.6328L12.3137 19.6168L19.2847 12.6448ZM4.53469 6.46477C4.999 6.00033 5.55025 5.63192 6.15697 5.38056C6.76368 5.12921 7.41397 4.99983 8.07069 4.99983C8.72741 4.99983 9.3777 5.12921 9.98441 5.38056C10.5911 5.63192 11.1424 6.00033 11.6067 6.46477C11.7887 6.64743 12.0244 6.87477 12.3137 7.14677C12.6017 6.87477 12.8374 6.6471 13.0207 6.46377C13.9512 5.51893 15.2189 4.98244 16.545 4.97231C17.8711 4.96219 19.1469 5.47925 20.0917 6.40977C21.0365 7.34028 21.573 8.60801 21.5831 9.93408C21.5933 11.2602 21.0762 12.5359 20.1457 13.4808L13.0207 20.6068C12.8332 20.7942 12.5789 20.8996 12.3137 20.8996C12.0485 20.8996 11.7942 20.7942 11.6067 20.6068L4.47969 13.4798C3.56573 12.5372 3.0592 11.2729 3.06949 9.96C3.07978 8.6471 3.60607 7.39092 4.53469 6.46277V6.46477Z" fill="black"/>
</svg>
